{
    "asset" : {
        "generator" : "Khronos glTF Blender I/O v3.4.50",
        "version" : "2.0"
    },
    "extensionsUsed" : [
        "KHR_materials_clearcoat",
        "KHR_materials_specular",
        "KHR_materials_ior"
    ],
    "scene" : 0,
    "scenes" : [
        {
            "name" : "Scene",
            "nodes" : [
                1,
                2,
                3,
                4,
                5
            ]
        }
    ],
    "nodes" : [
        {
            "mesh" : 0,
            "name" : "Cube.001",
            "rotation" : [
                -0.7063561677932739,
                0.7078340649604797,
                0.0039928681217134,
                0.004001318942755461
            ],
            "scale" : [
                2.407230854034424,
                2.407230854034424,
                2.407231092453003
            ],
            "translation" : [
                -3.0716769695281982,
                0.0064198896288871765,
                3.3859291076660156
            ]
        },
        {
            "children" : [
                0
            ],
            "name" : "Mball",
            "rotation" : [
                0,
                0,
                -0.7063673734664917,
                0.7078454494476318
            ],
            "scale" : [
                0.41541510820388794,
                0.41541510820388794,
                0.41541504859924316
            ],
            "translation" : [
                0,
                -1.7496168613433838,
                0
            ]
        },
        {
            "name" : "Mball.001",
            "rotation" : [
                -0.1588423252105713,
                -0.12154390662908554,
                -0.7331783175468445,
                0.6499583721160889
            ],
            "scale" : [
                0.41541510820388794,
                0.41541510820388794,
                0.41541504859924316
            ],
            "translation" : [
                -0.24189046025276184,
                -2.992629051208496,
                0.2579036056995392
            ]
        },
        {
            "name" : "Mball.002",
            "rotation" : [
                -0.1588423252105713,
                -0.12154390662908554,
                -0.7331783175468445,
                0.6499583721160889
            ],
            "scale" : [
                0.41541510820388794,
                0.41541510820388794,
                0.41541504859924316
            ],
            "translation" : [
                -0.24189046025276184,
                -2.992629051208496,
                0.2579036056995392
            ]
        },
        {
            "name" : "Mball.003",
            "rotation" : [
                0.28802478313446045,
                0.22039276361465454,
                -0.5769532322883606,
                0.7318426966667175
            ],
            "scale" : [
                0.41541510820388794,
                0.41541510820388794,
                0.41541504859924316
            ],
            "translation" : [
                -0.030934259295463562,
                -3.1069281101226807,
                -0.49070072174072266
            ]
        },
        {
            "mesh" : 1,
            "name" : "Sphere",
            "scale" : [
                0.768987238407135,
                0.768987238407135,
                0.768987238407135
            ],
            "translation" : [
                0.6677520871162415,
                3.0775179862976074,
                0
            ]
        }
    ],
    "materials" : [
        {
            "doubleSided" : true,
            "extensions" : {
                "KHR_materials_clearcoat" : {
                    "clearcoatFactor" : 1,
                    "clearcoatRoughnessFactor" : 0.4936363697052002
                },
                "KHR_materials_specular" : {
                    "specularColorFactor" : [
                        0.03854805207018822,
                        0.05947601069487188,
                        0.13925707631719275
                    ]
                },
                "KHR_materials_ior" : {
                    "ior" : 9.449999809265137
                }
            },
            "name" : "Material.002",
            "pbrMetallicRoughness" : {
                "baseColorFactor" : [
                    0.22144974768161774,
                    0.34167608618736267,
                    0.8000000715255737,
                    1
                ],
                "roughnessFactor" : 0.5
            }
        },
        {
            "doubleSided" : true,
            "extensions" : {
                "KHR_materials_specular" : {
                    "specularColorFactor" : [
                        1.2732106771202447,
                        1.1140069559036148,
                        1.3531143054245678
                    ]
                },
                "KHR_materials_ior" : {
                    "ior" : 1.4500000476837158
                }
            },
            "name" : "Material.003",
            "pbrMetallicRoughness" : {
                "baseColorFactor" : [
                    0.7187994718551636,
                    0.557011604309082,
                    0.8000000715255737,
                    1
                ],
                "roughnessFactor" : 0.5
            }
        }
    ],
    "meshes" : [
        {
            "name" : "Cube.002",
            "primitives" : [
                {
                    "attributes" : {
                        "POSITION" : 0,
                        "TEXCOORD_0" : 1,
                        "NORMAL" : 2
                    },
                    "indices" : 3,
                    "material" : 0
                }
            ]
        },
        {
            "name" : "Sphere",
            "primitives" : [
                {
                    "attributes" : {
                        "POSITION" : 4,
                        "TEXCOORD_0" : 5,
                        "NORMAL" : 6
                    },
                    "indices" : 7,
                    "material" : 1
                }
            ]
        }
    ],
    "accessors" : [
        {
            "bufferView" : 0,
            "componentType" : 5126,
            "count" : 293,
            "max" : [
                1.0492068529129028,
                7.351513862609863,
                3.9342684745788574
            ],
            "min" : [
                -1.024793267250061,
                -1,
                -1
            ],
            "type" : "VEC3"
        },
        {
            "bufferView" : 1,
            "componentType" : 5126,
            "count" : 293,
            "type" : "VEC2"
        },
        {
            "bufferView" : 2,
            "componentType" : 5126,
            "count" : 293,
            "type" : "VEC3"
        },
        {
            "bufferView" : 3,
            "componentType" : 5123,
            "count" : 774,
            "type" : "SCALAR"
        },
        {
            "bufferView" : 4,
            "componentType" : 5126,
            "count" : 559,
            "max" : [
                0.9999997019767761,
                1,
                0.9999993443489075
            ],
            "min" : [
                -0.9999990463256836,
                -1,
                -1
            ],
            "type" : "VEC3"
        },
        {
            "bufferView" : 5,
            "componentType" : 5126,
            "count" : 559,
            "type" : "VEC2"
        },
        {
            "bufferView" : 6,
            "componentType" : 5126,
            "count" : 559,
            "type" : "VEC3"
        },
        {
            "bufferView" : 7,
            "componentType" : 5123,
            "count" : 2880,
            "type" : "SCALAR"
        }
    ],
    "bufferViews" : [
        {
            "buffer" : 0,
            "byteLength" : 3516,
            "byteOffset" : 0,
            "target" : 34962
        },
        {
            "buffer" : 0,
            "byteLength" : 2344,
            "byteOffset" : 3516,
            "target" : 34962
        },
        {
            "buffer" : 0,
            "byteLength" : 3516,
            "byteOffset" : 5860,
            "target" : 34962
        },
        {
            "buffer" : 0,
            "byteLength" : 1548,
            "byteOffset" : 9376,
            "target" : 34963
        },
        {
            "buffer" : 0,
            "byteLength" : 6708,
            "byteOffset" : 10924,
            "target" : 34962
        },
        {
            "buffer" : 0,
            "byteLength" : 4472,
            "byteOffset" : 17632,
            "target" : 34962
        },
        {
            "buffer" : 0,
            "byteLength" : 6708,
            "byteOffset" : 22104,
            "target" : 34962
        },
        {
            "buffer" : 0,
            "byteLength" : 5760,
            "byteOffset" : 28812,
            "target" : 34963
        }
    ],
    "buffers" : [
        {
            "byteLength" : 34572,
            "uri" : "data:application/octet-stream;base64,"
        }
    ]
}
